<?xml version="1.0" standalone="no"?>
<!DOCTYPE svg PUBLIC "-//W3C//DTD SVG 20010904//EN"
 "http://www.w3.org/TR/2001/REC-SVG-20010904/DTD/svg10.dtd">
<svg version="1.0" xmlns="http://www.w3.org/2000/svg"
 width="256.000000pt" height="256.000000pt" viewBox="0 0 256.000000 256.000000"
 preserveAspectRatio="xMidYMid meet">

<g transform="translate(0.000000,256.000000) scale(0.100000,-0.100000)"
fill="#000000" stroke="none">
<path d="M1027 1845 c-10 -66 -60 -158 -121 -218 -71 -70 -151 -109 -238 -115
-59 -4 -75 -1 -122 22 -31 15 -64 38 -75 52 -10 13 -22 24 -25 24 -9 0 -7
-183 5 -315 47 -550 291 -944 723 -1170 48 -25 95 -45 106 -45 11 0 51 15 88
34 193 97 388 265 494 426 167 253 243 518 255 890 l6 185 -40 -36 c-88 -80
-206 -90 -322 -29 -114 61 -210 186 -227 296 l-6 44 -248 0 -247 0 -6 -45z
m373 -223 l0 -248 42 -19 c81 -36 165 -140 187 -232 6 -26 9 48 10 225 l1 264
38 -30 c47 -37 105 -67 160 -81 l42 -12 0 -449 0 -448 -59 -79 c-32 -43 -86
-105 -120 -138 l-61 -59 -1 334 c0 284 -2 328 -13 289 -26 -96 -101 -186 -188
-227 l-37 -17 -1 -272 0 -273 -60 -30 -60 -30 -60 30 -60 30 0 274 0 274 -30
12 c-84 35 -155 114 -190 213 l-19 52 -1 -330 -1 -330 -77 80 c-43 44 -97 108
-120 142 l-42 62 0 445 0 445 42 12 c55 14 127 51 167 84 l31 27 1 -264 0
-263 18 56 c31 98 95 173 185 215 l36 18 0 248 0 248 120 0 120 0 0 -248z"/>
<path d="M1213 1370 c-120 -25 -221 -119 -257 -240 -38 -127 1 -263 100 -349
139 -122 345 -113 470 21 69 74 89 125 89 233 0 78 -4 97 -28 146 -66 136
-230 219 -374 189z m203 -44 c62 -29 124 -90 156 -154 34 -69 33 -206 -1 -276
-97 -196 -360 -243 -514 -92 -20 21 -50 61 -65 89 -23 45 -27 63 -27 142 0 78
4 97 27 140 85 161 263 225 424 151z"/>
<path d="M1184 1294 c-147 -52 -219 -239 -148 -382 31 -62 90 -115 150 -136
41 -14 44 -13 44 2 0 10 -22 28 -56 46 -175 92 -174 336 2 422 37 18 54 32 54
45 0 11 -1 19 -2 18 -2 0 -22 -7 -44 -15z"/>
<path d="M1250 1034 l0 -277 61 6 c66 6 85 16 75 42 -4 12 -10 14 -25 5 -11
-5 -31 -10 -45 -10 l-26 0 0 236 0 237 44 -6 c33 -5 45 -3 49 8 7 17 -41 35
-94 35 l-39 0 0 -276z"/>
<path d="M1420 1035 c0 -221 1 -235 18 -226 23 12 67 60 82 90 18 34 -8 49
-32 18 -10 -12 -18 -25 -18 -29 0 -5 -4 -8 -10 -8 -6 0 -10 58 -10 155 0 97 4
155 10 155 6 0 10 -3 10 -7 0 -5 8 -18 18 -30 24 -31 50 -16 32 18 -15 30 -59
78 -82 90 -17 9 -18 -5 -18 -226z"/>
<path d="M1188 1220 c-51 -27 -95 -84 -108 -141 -10 -40 -9 -58 5 -104 10 -35
21 -55 28 -52 13 4 14 32 2 60 -6 15 -1 17 40 17 l46 0 -2 -57 c-2 -48 0 -59
14 -61 15 -3 17 13 17 177 0 100 -1 181 -2 181 -2 -1 -19 -10 -40 -20z m12
-110 l0 -70 -45 0 c-40 0 -45 2 -45 23 0 37 56 116 83 117 4 0 7 -31 7 -70z"/>
</g>
</svg>
